<?xml version="1.0" encoding="UTF-8" ?>
<!DOCTYPE svg PUBLIC "-//W3C//DTD SVG 1.1//EN" "http://www.w3.org/Graphics/SVG/1.1/DTD/svg11.dtd">
<svg width="648pt" height="562pt" viewBox="0 0 648 562" version="1.1" xmlns="http://www.w3.org/2000/svg">
<path fill="#ffffff" d=" M 0.00 0.00 L 648.00 0.00 L 648.00 562.00 L 0.00 562.00 L 0.00 0.00 Z" />
<path fill="#c7f0ed" d=" M 458.12 56.64 C 461.47 51.76 467.98 46.90 470.92 54.96 C 481.23 70.86 473.37 90.93 476.47 108.59 C 477.91 179.92 476.23 251.34 477.30 322.68 C 478.94 376.08 477.51 429.59 478.03 483.03 C 479.79 488.04 474.93 490.77 473.84 495.03 C 471.75 498.09 469.02 500.90 466.01 503.12 C 463.55 501.03 460.78 499.19 458.69 496.73 C 461.89 496.73 465.07 496.12 462.93 491.02 C 462.82 452.86 463.49 414.67 462.62 376.54 C 461.06 306.08 462.64 235.52 461.84 165.04 C 459.83 129.51 461.71 93.86 460.88 58.29 C 459.99 57.69 459.07 57.14 458.12 56.64 Z" />
<path fill="#d0f2f0" d=" M 470.92 54.96 C 476.61 59.84 482.10 65.46 485.77 72.04 C 487.61 77.68 491.57 82.74 490.91 89.01 C 490.55 214.36 492.83 339.64 491.91 464.99 C 492.45 469.36 489.69 472.90 488.83 476.98 C 484.87 483.56 479.62 489.97 473.84 495.03 C 474.93 490.77 479.79 488.04 478.03 483.03 C 477.51 429.59 478.94 376.08 477.30 322.68 C 476.23 251.34 477.91 179.92 476.47 108.59 C 473.37 90.93 481.23 70.86 470.92 54.96 Z" />
<path fill="#bfeeeb" d=" M 446.93 65.68 C 450.22 62.20 454.02 59.13 458.12 56.64 C 459.07 57.14 459.99 57.69 460.88 58.29 C 461.71 93.86 459.83 129.51 461.84 165.04 C 462.64 235.52 461.06 306.08 462.62 376.54 C 463.49 414.67 462.82 452.86 462.93 491.02 C 465.07 496.12 461.89 496.73 458.69 496.73 C 454.87 494.30 450.93 491.66 447.95 488.20 C 449.99 488.08 452.53 488.28 452.67 485.60 C 451.78 346.76 451.06 207.98 450.88 69.12 C 450.76 66.90 449.07 65.65 446.93 65.68 Z" />
<path fill="#b8ece8" d=" M 436.95 73.65 C 439.97 70.72 443.02 67.35 446.93 65.68 C 449.07 65.65 450.76 66.90 450.88 69.12 C 451.06 207.98 451.78 346.76 452.67 485.60 C 452.53 488.28 449.99 488.08 447.95 488.20 C 444.72 486.03 441.28 483.94 438.75 480.95 C 440.15 480.25 441.60 479.61 442.92 478.74 C 441.16 405.21 442.31 331.58 442.03 258.00 C 439.90 197.41 441.54 136.70 440.95 76.06 C 440.95 74.11 438.31 74.12 436.95 73.65 Z" />
<path fill="#d8f4f3" d=" M 485.77 72.04 C 490.49 75.79 494.02 81.58 496.86 87.01 C 506.43 100.19 503.94 116.74 503.97 132.00 C 506.01 195.29 504.57 258.67 505.00 322.00 C 504.49 363.57 507.33 405.11 505.61 446.67 C 504.12 452.42 500.81 457.49 498.94 463.11 C 496.10 467.88 493.06 473.57 488.83 476.98 C 489.69 472.90 492.45 469.36 491.91 464.99 C 492.83 339.64 490.55 214.36 490.91 89.01 C 491.57 82.74 487.61 77.68 485.77 72.04 Z" />
<path fill="#b3eae7" d=" M 427.92 80.82 C 430.78 78.35 433.33 75.04 436.95 73.65 C 438.31 74.12 440.95 74.11 440.95 76.06 C 441.54 136.70 439.90 197.41 442.03 258.00 C 442.31 331.58 441.16 405.21 442.92 478.74 C 441.60 479.61 440.15 480.25 438.75 480.95 C 435.34 478.54 431.44 476.27 428.99 472.96 C 430.64 473.28 432.28 473.66 433.96 473.90 C 434.80 401.23 432.31 328.66 433.00 256.00 C 433.69 197.68 432.01 139.44 431.92 81.15 C 430.59 80.99 429.26 80.88 427.92 80.82 Z" />
<path fill="#ace9e5" d=" M 417.94 88.84 C 420.48 85.39 424.28 83.00 427.92 80.82 C 429.26 80.88 430.59 80.99 431.92 81.15 C 432.01 139.44 433.69 197.68 433.00 256.00 C 432.31 328.66 434.80 401.23 433.96 473.90 C 432.28 473.66 430.64 473.28 428.99 472.96 C 425.24 470.64 421.17 468.07 418.70 464.49 C 420.58 464.48 422.33 465.19 424.10 465.72 C 423.12 340.49 423.11 215.31 421.97 90.07 C 422.20 88.10 419.12 89.35 417.94 88.84 Z" />
<path fill="#e0f7f5" d=" M 496.86 87.01 C 501.29 90.80 503.95 96.86 506.78 102.01 C 507.78 105.95 510.18 109.32 512.03 112.90 C 514.94 122.78 520.06 132.34 519.03 142.98 C 518.12 233.34 520.52 323.64 519.89 413.99 C 520.22 421.13 516.36 427.32 515.01 434.12 C 513.03 437.95 510.76 441.74 509.78 445.99 C 506.64 451.86 503.56 458.28 498.94 463.11 C 500.81 457.49 504.12 452.42 505.61 446.67 C 507.33 405.11 504.49 363.57 505.00 322.00 C 504.57 258.67 506.01 195.29 503.97 132.00 C 503.94 116.74 506.43 100.19 496.86 87.01 Z" />
<path fill="#a5e7e2" d=" M 408.04 96.76 C 410.72 93.64 414.29 90.93 417.94 88.84 C 419.12 89.35 422.20 88.10 421.97 90.07 C 423.11 215.31 423.12 340.49 424.10 465.72 C 422.33 465.19 420.58 464.48 418.70 464.49 C 414.86 462.95 411.53 459.70 408.68 456.83 C 411.23 455.78 415.88 456.22 412.98 450.96 C 413.55 335.28 411.19 219.68 412.02 103.98 C 414.05 99.39 411.41 97.61 408.04 96.76 Z" />
<path fill="#9ee5e0" d=" M 397.99 104.74 C 400.61 101.34 404.37 98.92 408.04 96.76 C 411.41 97.61 414.05 99.39 412.02 103.98 C 411.19 219.68 413.55 335.28 412.98 450.96 C 415.88 456.22 411.23 455.78 408.68 456.83 C 405.20 454.64 401.74 452.18 398.94 449.21 C 406.81 450.23 402.00 439.10 403.09 435.02 C 403.10 327.28 402.06 219.72 401.95 112.00 C 402.49 109.11 401.88 104.30 397.99 104.74 Z" />
<path fill="#eefbfa" d=" M 506.78 102.01 C 532.10 141.22 543.39 188.55 548.33 234.69 C 553.49 287.61 550.01 341.88 533.61 392.74 C 527.28 411.02 520.75 430.15 509.78 445.99 C 510.76 441.74 513.03 437.95 515.01 434.12 C 524.50 414.95 532.58 394.38 534.87 372.98 C 534.91 314.84 535.43 256.66 534.62 198.54 C 536.93 168.27 525.21 139.46 512.03 112.90 C 510.18 109.32 507.78 105.95 506.78 102.01 Z" />
<path fill="#97e3de" d=" M 388.19 112.66 C 390.49 109.50 394.51 106.99 397.99 104.74 C 401.88 104.30 402.49 109.11 401.95 112.00 C 402.06 219.72 403.10 327.28 403.09 435.02 C 402.00 439.10 406.81 450.23 398.94 449.21 C 395.36 446.72 391.48 444.42 388.73 440.98 C 391.28 439.48 395.73 438.77 393.02 434.01 C 391.36 327.45 392.89 220.79 390.85 114.25 C 389.98 113.67 389.10 113.14 388.19 112.66 Z" />
<path fill="#90e1dc" d=" M 377.99 120.67 C 381.08 117.68 384.39 114.75 388.19 112.66 C 389.10 113.14 389.98 113.67 390.85 114.25 C 392.89 220.79 391.36 327.45 393.02 434.01 C 395.73 438.77 391.28 439.48 388.73 440.98 C 385.25 438.78 381.64 436.48 379.01 433.28 C 381.49 432.10 385.76 431.76 382.99 426.99 C 382.74 325.64 381.78 224.41 381.98 123.05 C 382.09 121.11 379.30 121.21 377.99 120.67 Z" />
<path fill="#e7f8f7" d=" M 512.03 112.90 C 525.21 139.46 536.93 168.27 534.62 198.54 C 535.43 256.66 534.91 314.84 534.87 372.98 C 532.58 394.38 524.50 414.95 515.01 434.12 C 516.36 427.32 520.22 421.13 519.89 413.99 C 520.52 323.64 518.12 233.34 519.03 142.98 C 520.06 132.34 514.94 122.78 512.03 112.90 Z" />
<path fill="#89dfd9" d=" M 366.04 129.72 C 370.05 126.75 373.74 123.32 377.99 120.67 C 379.30 121.21 382.09 121.11 381.98 123.05 C 381.78 224.41 382.74 325.64 382.99 426.99 C 385.76 431.76 381.49 432.10 379.01 433.28 C 375.14 430.60 371.10 428.00 368.02 424.42 C 369.01 423.91 369.97 423.35 370.89 422.72 C 371.84 326.12 369.22 229.58 370.02 132.98 C 370.67 130.49 367.81 130.05 366.04 129.72 Z" />
<path fill="#81ddd7" d=" M 353.93 139.93 C 357.53 136.07 362.32 133.50 366.04 129.72 C 367.81 130.05 370.67 130.49 370.02 132.98 C 369.22 229.58 371.84 326.12 370.89 422.72 C 369.97 423.35 369.01 423.91 368.02 424.42 C 364.41 422.21 360.79 419.72 358.08 416.43 C 361.52 413.72 359.13 408.59 360.04 405.02 C 360.27 318.30 358.54 231.71 358.98 145.00 C 361.25 139.68 357.27 138.28 353.93 139.93 Z" />
<path fill="#79dbd4" d=" M 353.93 139.93 C 357.27 138.28 361.25 139.68 358.98 145.00 C 358.54 231.71 360.27 318.30 360.04 405.02 C 359.13 408.59 361.52 413.72 358.08 416.43 C 353.19 413.04 348.10 409.63 343.99 405.30 C 345.36 404.98 346.90 404.87 347.90 403.74 C 348.91 319.80 346.62 235.92 347.01 151.99 C 347.58 149.48 344.73 148.99 342.93 148.65 C 346.08 145.19 350.09 142.59 353.93 139.93 Z" />
<path fill="#70d8d1" d=" M 331.03 157.74 C 334.98 154.71 338.60 151.13 342.93 148.65 C 344.73 148.99 347.58 149.48 347.01 151.99 C 346.62 235.92 348.91 319.80 347.90 403.74 C 346.90 404.87 345.36 404.98 343.99 405.30 C 339.86 402.54 336.08 399.32 332.12 396.34 C 338.44 394.10 333.39 384.96 335.31 380.14 C 334.93 311.25 335.22 242.21 334.62 173.38 C 334.00 168.57 338.16 158.61 331.03 157.74 Z" />
<path fill="#68d6cf" d=" M 317.89 168.80 C 321.67 164.48 326.71 161.49 331.03 157.74 C 338.16 158.61 334.00 168.57 334.62 173.38 C 335.22 242.21 334.93 311.25 335.31 380.14 C 333.39 384.96 338.44 394.10 332.12 396.34 C 327.88 392.42 322.69 389.54 318.89 385.19 C 321.54 384.76 326.35 385.97 323.02 379.98 C 322.68 309.71 323.86 239.38 321.88 169.16 C 320.55 168.99 319.22 168.87 317.89 168.80 Z" />
<path fill="#60d4cc" d=" M 307.75 176.92 C 310.69 173.84 313.89 170.34 317.89 168.80 C 319.22 168.87 320.55 168.99 321.88 169.16 C 323.86 239.38 322.68 309.71 323.02 379.98 C 326.35 385.97 321.54 384.76 318.89 385.19 C 315.04 383.21 311.42 380.33 308.67 376.91 C 310.92 375.76 314.62 375.42 311.97 370.97 C 311.19 307.05 311.90 243.19 310.77 179.31 C 309.82 178.44 308.77 177.70 307.75 176.92 Z" />
<path fill="#58d2ca" d=" M 296.05 185.71 C 299.97 182.86 303.42 179.03 307.75 176.92 C 308.77 177.70 309.82 178.44 310.77 179.31 C 311.90 243.19 311.19 307.05 311.97 370.97 C 314.62 375.42 310.92 375.76 308.67 376.91 C 305.07 375.46 301.52 372.31 298.89 369.16 C 303.43 361.48 300.44 351.55 300.23 342.97 C 299.62 291.05 300.27 239.10 299.93 187.17 C 298.82 186.26 297.39 186.02 296.05 185.71 Z" />
<path fill="#50d0c7" d=" M 282.93 196.67 C 286.78 192.46 291.76 189.45 296.05 185.71 C 297.39 186.02 298.82 186.26 299.93 187.17 C 300.27 239.10 299.62 291.05 300.23 342.97 C 300.44 351.55 303.43 361.48 298.89 369.16 C 293.60 365.75 288.24 361.95 283.91 357.28 C 286.01 355.88 289.34 354.97 286.96 350.97 C 287.19 300.93 286.35 250.93 286.56 200.93 C 286.69 198.76 284.44 197.71 282.93 196.67 Z" />
<path fill="#21f5e9" d=" M 119.00 192.01 C 130.00 187.79 144.30 188.99 155.70 193.29 C 162.81 197.76 159.26 206.57 157.95 212.99 C 158.83 217.44 156.24 224.73 158.98 228.00 C 159.42 228.07 160.28 228.21 160.72 228.28 C 163.42 228.62 166.16 228.87 168.88 229.16 C 175.01 232.24 186.47 228.52 183.06 239.99 C 186.74 242.50 194.61 240.31 199.83 241.01 C 204.68 246.76 216.81 238.31 220.06 246.21 C 220.07 266.05 222.33 286.01 219.11 305.73 C 213.83 309.84 204.44 303.68 199.83 308.91 C 195.77 309.09 191.71 309.12 187.68 309.62 C 180.41 308.19 185.37 316.81 180.27 319.24 C 173.22 320.10 166.14 321.57 159.00 323.00 C 156.66 336.07 158.60 351.88 157.97 366.03 C 158.35 371.69 162.38 378.12 158.28 383.30 C 148.28 391.10 134.86 388.72 123.00 389.05 C 114.93 390.41 105.25 385.59 104.00 377.02 C 103.19 370.75 105.63 363.76 103.16 357.80 C 96.33 349.93 102.94 339.98 102.97 331.23 C 101.31 330.83 99.29 331.26 98.10 329.78 C 97.84 286.51 98.11 243.25 97.97 199.98 C 98.28 198.68 96.76 192.99 100.06 193.01 C 106.11 191.93 113.48 195.05 119.00 192.01 Z" />
<path fill="#adfcf6" d=" M 100.06 193.01 C 104.30 190.72 112.83 192.37 119.00 192.01 C 113.48 195.05 106.11 191.93 100.06 193.01 Z" />
<path fill="#201e1e" d=" M 121.91 194.00 C 130.01 191.27 141.73 191.96 150.81 195.14 C 150.65 195.59 150.34 196.48 150.19 196.93 C 149.70 200.02 151.77 202.75 153.36 205.20 C 153.87 205.86 154.40 206.51 154.96 207.15 C 154.98 208.86 155.02 212.29 155.04 214.00 C 154.98 219.37 154.94 224.75 154.90 230.13 C 154.00 227.64 153.24 225.16 152.27 222.72 C 151.74 217.76 152.91 212.53 151.25 207.74 C 149.22 204.30 148.68 199.08 144.76 197.20 C 143.79 196.85 142.81 196.53 141.83 196.24 C 142.47 195.99 143.74 195.47 144.38 195.22 C 137.59 194.92 130.81 194.84 124.02 194.99 C 126.70 197.41 133.66 195.55 138.22 196.20 C 133.94 193.77 120.94 202.16 121.91 194.00 Z" />
<path fill="#0d0d0c" d=" M 120.01 195.02 C 120.48 194.77 121.43 194.26 121.91 194.00 C 120.94 202.16 133.94 193.77 138.22 196.20 C 139.42 196.19 140.63 196.21 141.83 196.24 C 142.81 196.53 143.79 196.85 144.76 197.20 C 145.29 198.40 145.85 199.60 146.38 200.81 L 145.46 200.94 C 135.84 200.57 120.63 195.11 117.04 208.05 C 113.06 255.18 116.85 302.76 114.95 350.04 C 114.72 352.21 115.74 354.44 117.86 355.25 C 117.08 357.79 121.17 357.57 119.93 355.14 C 137.53 353.13 137.40 382.70 121.86 384.67 C 120.50 381.61 125.71 379.04 123.17 375.29 C 132.16 377.91 127.81 373.94 124.04 371.04 C 122.63 373.92 120.48 373.46 118.09 372.00 C 115.84 375.80 114.04 379.86 113.17 384.22 C 102.63 379.72 106.93 365.27 105.93 356.18 C 98.91 348.47 107.09 338.56 106.57 329.84 C 107.69 326.82 103.37 327.96 101.27 327.95 C 101.01 323.85 100.82 319.76 100.28 315.70 L 100.18 314.86 C 100.15 312.32 100.16 309.78 100.21 307.25 C 101.43 275.81 101.61 244.06 100.30 212.67 C 100.22 210.19 100.18 207.72 100.17 205.26 C 100.53 202.16 100.91 199.10 101.14 195.99 C 107.18 194.98 114.48 198.02 120.01 195.02 Z" />
<path fill="#195653" d=" M 101.14 195.99 C 105.16 193.78 113.88 195.31 120.01 195.02 C 114.48 198.02 107.18 194.98 101.14 195.99 Z" />
<path fill="#424242" d=" M 124.02 194.99 C 130.81 194.84 137.59 194.92 144.38 195.22 C 143.74 195.47 142.47 195.99 141.83 196.24 C 140.63 196.21 139.42 196.19 138.22 196.20 C 133.66 195.55 126.70 197.41 124.02 194.99 Z" />
<path fill="#5a5656" d=" M 150.81 195.14 C 156.70 194.26 160.03 204.69 154.96 207.15 C 154.40 206.51 153.87 205.86 153.36 205.20 C 158.33 203.15 154.47 196.51 150.19 196.93 C 150.34 196.48 150.65 195.59 150.81 195.14 Z" />
<path fill="#165552" d=" M 100.17 205.26 C 100.99 202.81 98.38 196.86 101.14 195.99 C 100.91 199.10 100.53 202.16 100.17 205.26 Z" />
<path fill="#3e3e3e" d=" M 144.76 197.20 C 148.68 199.08 149.22 204.30 151.25 207.74 C 150.96 217.44 151.05 227.15 150.91 236.86 C 149.46 238.74 146.76 243.32 149.01 234.07 C 147.22 223.08 151.69 211.00 146.38 200.81 C 145.85 199.60 145.29 198.40 144.76 197.20 Z" />
<path fill="#e7e7e7" d=" M 150.19 196.93 C 154.47 196.51 158.33 203.15 153.36 205.20 C 151.77 202.75 149.70 200.02 150.19 196.93 Z" />
<path fill="#46cdc4" d=" M 262.89 212.98 C 268.81 206.81 275.99 201.65 282.93 196.67 C 284.44 197.71 286.69 198.76 286.56 200.93 C 286.35 250.93 287.19 300.93 286.96 350.97 C 289.34 354.97 286.01 355.88 283.91 357.28 C 277.35 352.53 270.46 347.76 264.73 341.99 C 267.12 340.59 271.46 339.79 268.60 335.39 C 268.15 294.29 268.41 253.23 267.92 212.14 C 266.23 212.34 264.56 212.69 262.89 212.98 Z" />
<path fill="#363636" d=" M 117.04 208.05 C 120.63 195.11 135.84 200.57 145.46 200.94 C 137.21 205.28 121.51 195.67 119.14 208.13 C 119.84 220.39 116.65 233.38 120.90 245.20 C 112.68 234.94 118.85 220.12 117.04 208.05 Z" />
<path fill="#101010" d=" M 145.46 200.94 L 146.38 200.81 C 151.69 211.00 147.22 223.08 149.01 234.07 C 146.76 243.32 149.46 238.74 150.91 236.86 C 153.58 262.10 154.92 288.02 150.80 313.21 C 149.01 305.82 143.06 298.99 135.01 298.89 C 135.80 297.45 134.26 293.62 132.72 295.95 C 131.44 298.19 126.10 303.26 131.62 303.13 C 134.35 307.18 131.43 312.01 132.15 316.53 C 136.76 315.35 129.66 319.87 134.05 319.35 C 131.76 321.05 129.31 330.86 127.84 326.01 C 128.45 320.90 123.03 324.94 126.54 327.22 C 127.60 333.78 136.78 333.05 140.97 329.98 C 146.23 327.49 148.93 321.97 150.85 316.77 C 151.08 326.25 151.23 335.76 150.41 345.23 C 154.99 332.20 148.91 314.50 154.15 299.96 C 158.00 302.17 162.54 302.00 166.84 301.92 C 168.38 298.51 168.40 281.89 168.94 294.98 C 167.58 300.49 173.82 300.37 177.84 300.01 C 181.08 285.22 182.58 269.27 178.69 254.33 C 175.55 248.55 166.64 252.91 168.30 259.30 C 171.51 248.32 160.61 249.92 154.13 250.89 C 152.28 241.61 151.27 232.22 152.27 222.72 C 153.24 225.16 154.00 227.64 154.90 230.13 C 155.28 231.83 157.76 230.69 159.02 231.07 C 161.38 231.91 166.97 229.46 167.89 232.21 C 167.41 237.69 175.43 232.96 178.96 233.96 C 182.82 234.06 178.02 241.54 180.74 243.33 C 186.73 244.54 193.06 243.17 198.95 244.97 C 204.85 246.55 211.00 245.89 217.04 246.05 C 217.05 246.60 217.06 247.68 217.07 248.22 C 216.98 249.75 216.97 251.28 217.07 252.81 C 217.05 254.60 217.02 258.16 217.01 259.94 C 210.26 257.65 202.65 261.54 196.52 257.47 C 189.42 253.11 181.21 262.56 188.74 267.22 C 197.93 267.68 207.81 270.46 217.06 269.13 C 217.05 273.07 217.02 277.02 216.99 280.97 C 208.34 280.89 199.70 281.36 191.10 282.17 C 185.01 282.67 182.06 293.84 189.64 294.43 C 193.99 296.89 197.17 293.91 200.08 291.40 C 205.72 291.58 211.35 292.02 217.00 292.07 C 217.02 292.84 217.05 294.39 217.06 295.16 C 216.96 297.03 216.98 298.91 217.08 300.78 C 217.05 301.58 216.99 303.18 216.96 303.98 C 211.35 305.05 203.97 302.00 199.02 304.97 C 196.57 309.34 190.10 306.01 186.00 306.97 C 178.26 303.81 180.04 310.45 179.96 314.98 C 179.71 315.23 179.23 315.71 178.98 315.95 C 176.28 317.72 168.30 313.07 167.90 317.85 L 167.65 318.90 C 163.12 319.00 158.58 318.76 154.07 319.11 C 154.90 336.53 152.18 355.20 155.03 372.03 C 155.35 372.33 155.98 372.93 156.29 373.23 C 156.06 373.38 155.59 373.68 155.35 373.82 C 151.60 372.61 150.91 379.50 149.96 382.15 C 149.31 382.80 148.66 383.46 148.02 384.13 C 147.67 384.44 146.97 385.08 146.62 385.40 C 143.53 380.89 151.18 376.11 151.71 371.12 C 151.18 364.90 153.88 357.34 151.16 351.64 C 150.90 357.65 150.96 363.68 150.91 369.70 C 148.62 373.84 147.22 378.54 144.28 382.27 C 140.75 385.47 129.98 379.26 129.82 385.96 C 127.21 385.96 124.60 385.99 121.99 386.02 C 119.63 385.67 114.10 386.79 113.17 384.22 C 114.04 379.86 115.84 375.80 118.09 372.00 C 120.48 373.46 122.63 373.92 124.04 371.04 C 127.81 373.94 132.16 377.91 123.17 375.29 C 125.71 379.04 120.50 381.61 121.86 384.67 C 137.40 382.70 137.53 353.13 119.93 355.14 C 119.41 355.17 118.38 355.23 117.86 355.25 C 115.74 354.44 114.72 352.21 114.95 350.04 C 116.85 302.76 113.06 255.18 117.04 208.05 C 118.85 220.12 112.68 234.94 120.90 245.20 C 116.65 233.38 119.84 220.39 119.14 208.13 C 121.51 195.67 137.21 205.28 145.46 200.94 Z" />
<path fill="#117c79" d=" M 100.30 212.67 C 98.24 213.53 98.27 204.66 100.17 205.26 C 100.18 207.72 100.22 210.19 100.30 212.67 Z" />
<path fill="#7f7f7f" d=" M 151.25 207.74 C 152.91 212.53 151.74 217.76 152.27 222.72 C 151.27 232.22 152.28 241.61 154.13 250.89 C 154.05 255.23 153.97 259.58 153.96 263.93 C 153.95 271.61 153.95 279.30 154.02 286.98 C 154.01 291.30 154.06 295.63 154.15 299.96 C 148.91 314.50 154.99 332.20 150.41 345.23 C 151.23 335.76 151.08 326.25 150.85 316.77 C 150.85 315.58 150.83 314.39 150.80 313.21 C 154.92 288.02 153.58 262.10 150.91 236.86 C 151.05 227.15 150.96 217.44 151.25 207.74 Z" />
<path fill="#3bcac0" d=" M 262.89 212.98 C 264.56 212.69 266.23 212.34 267.92 212.14 C 268.41 253.23 268.15 294.29 268.60 335.39 C 271.46 339.79 267.12 340.59 264.73 341.99 C 257.65 336.70 250.20 331.59 243.95 325.32 C 246.86 325.03 250.52 323.23 248.04 319.00 C 247.28 291.34 246.61 263.69 247.01 235.99 C 249.49 231.47 245.34 230.41 242.89 228.71 C 249.13 223.08 255.73 217.29 262.89 212.98 Z" />
<path fill="#1c4a47" d=" M 100.30 212.67 C 101.61 244.06 101.43 275.81 100.21 307.25 C 99.95 275.73 99.70 244.17 100.30 212.67 Z" />
<path fill="#b6fcf7" d=" M 157.95 212.99 C 160.38 215.95 158.65 223.15 158.98 228.00 C 156.24 224.73 158.83 217.44 157.95 212.99 Z" />
<path fill="#509290" d=" M 155.04 214.00 C 158.68 217.50 152.23 229.59 159.02 231.07 C 157.76 230.69 155.28 231.83 154.90 230.13 C 154.94 224.75 154.98 219.37 155.04 214.00 Z" />
<path fill="#84faf2" d=" M 160.72 228.28 C 163.09 228.52 168.44 226.63 168.88 229.16 C 166.16 228.87 163.42 228.62 160.72 228.28 Z" />
<path fill="#2ec7bc" d=" M 220.06 246.21 C 227.98 240.80 234.89 233.94 242.89 228.71 C 245.34 230.41 249.49 231.47 247.01 235.99 C 246.61 263.69 247.28 291.34 248.04 319.00 C 250.52 323.23 246.86 325.03 243.95 325.32 C 235.47 319.17 226.91 312.80 219.11 305.73 C 222.33 286.01 220.07 266.05 220.06 246.21 Z" />
<path fill="#1c7d79" d=" M 167.89 232.21 C 171.03 233.38 177.50 231.37 178.96 233.96 C 175.43 232.96 167.41 237.69 167.89 232.21 Z" />
<path fill="#96fbf4" d=" M 183.06 239.99 C 187.47 241.12 197.59 237.87 199.83 241.01 C 194.61 240.31 186.74 242.50 183.06 239.99 Z" />
<path fill="#184746" d=" M 180.74 243.33 C 185.31 244.90 197.81 239.29 198.95 244.97 C 193.06 243.17 186.73 244.54 180.74 243.33 Z" />
<path fill="#1fb4ad" d=" M 198.95 244.97 C 204.02 246.36 213.74 242.64 217.04 246.05 C 211.00 245.89 204.85 246.55 198.95 244.97 Z" />
<path fill="#353535" d=" M 121.76 246.10 C 129.54 245.99 137.33 245.82 145.11 246.04 C 139.05 248.82 127.49 250.49 121.76 246.10 Z" />
<path fill="#14a29b" d=" M 217.07 248.22 C 218.77 248.55 218.60 251.72 217.66 252.88 L 217.07 252.81 C 216.97 251.28 216.98 249.75 217.07 248.22 Z" />
<path fill="#212121" d=" M 154.13 250.89 C 160.61 249.92 171.51 248.32 168.30 259.30 C 166.64 252.91 175.55 248.55 178.69 254.33 C 182.58 269.27 181.08 285.22 177.84 300.01 C 173.82 300.37 167.58 300.49 168.94 294.98 C 168.40 281.89 168.38 298.51 166.84 301.92 C 162.54 302.00 158.00 302.17 154.15 299.96 C 154.06 295.63 154.01 291.30 154.02 286.98 C 162.70 289.30 171.12 287.12 178.89 283.74 C 177.20 277.31 184.45 261.91 172.18 263.70 C 166.96 259.47 159.75 261.97 153.96 263.93 C 153.97 259.58 154.05 255.23 154.13 250.89 Z" />
<path fill="#1a4a47" d=" M 217.07 252.81 L 217.66 252.88 C 218.23 266.93 218.27 281.07 217.64 295.11 L 217.06 295.16 C 217.05 294.39 217.02 292.84 217.00 292.07 C 217.00 288.35 217.02 284.67 216.99 280.97 C 217.02 277.02 217.05 273.07 217.06 269.13 C 217.06 266.05 217.04 263.01 217.01 259.94 C 217.02 258.16 217.05 254.60 217.07 252.81 Z" />
<path fill="#1d1d1d" d=" M 188.74 267.22 C 181.21 262.56 189.42 253.11 196.52 257.47 C 202.65 261.54 210.26 257.65 217.01 259.94 C 217.04 263.01 217.06 266.05 217.06 269.13 C 207.81 270.46 197.93 267.68 188.74 267.22 Z" />
<path fill="#0d0d0d" d=" M 153.96 263.93 C 159.75 261.97 166.96 259.47 172.18 263.70 C 184.45 261.91 177.20 277.31 178.89 283.74 C 171.12 287.12 162.70 289.30 154.02 286.98 C 153.95 279.30 153.95 271.61 153.96 263.93 Z" />
<path fill="#222222" d=" M 191.10 282.17 C 199.70 281.36 208.34 280.89 216.99 280.97 C 217.02 284.67 217.00 288.35 217.00 292.07 C 211.35 292.02 205.72 291.58 200.08 291.40 C 197.17 293.91 193.99 296.89 189.64 294.43 C 182.06 293.84 185.01 282.67 191.10 282.17 Z" />
<path fill="#bbbbbb" d=" M 132.72 295.95 C 134.26 293.62 135.80 297.45 135.01 298.89 C 133.23 299.24 132.52 297.40 132.72 295.95 Z" />
<path fill="#13a69f" d=" M 217.06 295.16 L 217.64 295.11 C 218.53 296.60 218.83 300.04 217.08 300.78 C 216.98 298.91 216.96 297.03 217.06 295.16 Z" />
<path fill="#191919" d=" M 131.62 303.13 C 126.10 303.26 131.44 298.19 132.72 295.95 C 132.52 297.40 133.23 299.24 135.01 298.89 C 143.06 298.99 149.01 305.82 150.80 313.21 C 150.83 314.39 150.85 315.58 150.85 316.77 C 148.93 321.97 146.23 327.49 140.97 329.98 C 136.78 333.05 127.60 333.78 126.54 327.22 C 126.86 326.92 127.51 326.31 127.84 326.01 C 129.31 330.86 131.76 321.05 134.05 319.35 C 137.57 316.75 134.73 309.90 135.40 305.65 C 135.86 302.95 132.61 298.47 131.62 303.13 Z" />
<path fill="#727272" d=" M 131.62 303.13 C 132.61 298.47 135.86 302.95 135.40 305.65 C 134.73 309.90 137.57 316.75 134.05 319.35 C 129.66 319.87 136.76 315.35 132.15 316.53 C 131.43 312.01 134.35 307.18 131.62 303.13 Z" />
<path fill="#777777" d=" M 126.18 303.10 C 128.96 303.11 129.24 307.15 130.89 308.95 C 128.11 312.22 123.17 305.19 126.18 303.10 Z" />
<path fill="#20aaa7" d=" M 199.02 304.97 C 203.97 302.00 211.35 305.05 216.96 303.98 C 213.12 306.35 204.75 304.57 199.02 304.97 Z" />
<path fill="#139894" d=" M 100.18 314.86 C 98.19 315.10 98.30 306.77 100.21 307.25 C 100.16 309.78 100.15 312.32 100.18 314.86 Z" />
<path fill="#1eafa9" d=" M 179.96 314.98 C 180.04 310.45 178.26 303.81 186.00 306.97 C 179.40 305.23 182.60 312.95 179.96 314.98 Z" />
<path fill="#7af9f1" d=" M 187.68 309.62 C 191.71 309.12 195.77 309.09 199.83 308.91 C 198.69 311.62 191.17 309.48 187.68 309.62 Z" />
<path fill="#7d7d7d" d=" M 121.22 310.15 C 123.56 309.71 130.57 310.72 126.78 313.86 C 124.79 314.74 118.42 312.33 121.22 310.15 Z" />
<path fill="#a4a4a4" d=" M 142.02 310.02 C 155.69 305.45 137.45 323.69 142.02 310.02 Z" />
<path fill="#7b7b7b" d=" M 127.26 315.24 C 133.70 317.01 124.37 320.41 121.20 320.87 C 117.27 316.53 125.75 318.37 127.26 315.24 Z" />
<path fill="#206967" d=" M 100.28 315.70 C 100.82 319.76 101.01 323.85 101.27 327.95 C 98.20 326.54 100.67 319.28 100.28 315.70 Z" />
<path fill="#2d4d4c" d=" M 167.90 317.85 C 168.30 313.07 176.28 317.72 178.98 315.95 C 177.54 318.64 171.04 316.55 167.90 317.85 Z" />
<path fill="#969696" d=" M 145.27 318.10 C 150.69 319.24 141.35 322.59 145.27 318.10 Z" />
<path fill="#363c3c" d=" M 154.07 319.11 C 158.58 318.76 163.12 319.00 167.65 318.90 C 167.41 321.57 159.14 319.13 156.00 320.03 C 153.70 333.29 155.53 350.22 155.01 365.01 C 155.02 366.77 155.03 370.27 155.03 372.03 C 152.18 355.20 154.90 336.53 154.07 319.11 Z" />
<path fill="#74a19f" d=" M 155.01 365.01 C 155.53 350.22 153.70 333.29 156.00 320.03 C 155.95 335.00 156.14 349.98 155.94 364.95 L 155.01 365.01 Z" />
<path fill="#858585" d=" M 139.01 321.95 C 141.15 321.23 144.43 326.15 141.42 326.42 C 139.08 327.78 139.76 323.32 139.01 321.95 Z" />
<path fill="#a5a5a5" d=" M 126.54 327.22 C 123.03 324.94 128.45 320.90 127.84 326.01 C 127.51 326.31 126.86 326.92 126.54 327.22 Z" />
<path fill="#acfbf6" d=" M 157.97 366.03 C 158.60 351.88 156.66 336.07 159.00 323.00 C 158.01 336.75 160.83 353.91 157.97 366.03 Z" />
<path fill="#7e7e7e" d=" M 133.19 325.16 C 136.05 323.43 135.95 330.69 132.94 329.00 C 130.69 329.33 133.07 326.24 133.19 325.16 Z" />
<path fill="#1c807c" d=" M 101.27 327.95 C 103.37 327.96 107.69 326.82 106.57 329.84 C 104.95 329.26 101.80 329.85 101.27 327.95 Z" />
<path fill="#525252" d=" M 109.22 331.10 C 115.13 331.34 106.93 339.93 110.95 343.03 C 106.93 346.27 108.11 333.00 109.22 331.10 Z" />
<path fill="#626262" d=" M 122.22 334.12 C 125.14 332.81 126.59 339.38 123.00 338.03 C 120.10 339.13 120.51 335.11 122.22 334.12 Z" />
<path fill="#9d9d9d" d=" M 132.53 345.08 C 135.01 341.72 141.60 339.70 144.16 343.90 C 144.21 346.37 145.49 349.04 144.45 351.40 C 140.86 352.01 137.24 352.38 133.64 352.90 C 131.66 350.73 132.47 347.75 132.53 345.08 Z" />
<path fill="#575757" d=" M 129.18 344.04 C 130.47 342.45 132.59 342.88 132.53 345.08 C 132.47 347.75 131.66 350.73 133.64 352.90 C 134.00 353.40 134.72 354.40 135.08 354.90 C 126.80 357.58 132.82 348.13 129.18 344.04 Z" />
<path fill="#bebebe" d=" M 144.16 343.90 C 145.40 344.62 146.41 345.62 146.06 347.20 C 145.98 348.38 145.97 349.57 146.02 350.76 C 145.40 355.45 138.57 358.11 135.08 354.90 C 134.72 354.40 134.00 353.40 133.64 352.90 C 137.24 352.38 140.86 352.01 144.45 351.40 C 145.49 349.04 144.21 346.37 144.16 343.90 Z" />
<path fill="#bfbfbf" d=" M 125.16 347.16 C 129.80 346.15 124.16 351.80 125.16 347.16 Z" />
<path fill="#646464" d=" M 146.06 347.20 C 147.86 346.92 147.83 351.08 146.02 350.76 C 145.97 349.57 145.98 348.38 146.06 347.20 Z" />
<path fill="#858585" d=" M 151.16 351.64 C 153.88 357.34 151.18 364.90 151.71 371.12 C 151.51 370.76 151.11 370.05 150.91 369.70 C 150.96 363.68 150.90 357.65 151.16 351.64 Z" />
<path fill="#797979" d=" M 117.86 355.25 C 118.38 355.23 119.41 355.17 119.93 355.14 C 121.17 357.57 117.08 357.79 117.86 355.25 Z" />
<path fill="#85faf2" d=" M 103.16 357.80 C 105.63 363.76 103.19 370.75 104.00 377.02 C 101.75 372.40 103.22 364.08 103.16 357.80 Z" />
<path fill="#606060" d=" M 118.25 360.13 C 121.10 359.21 119.19 363.33 119.75 364.92 C 115.81 366.36 117.99 362.31 118.25 360.13 Z" />
<path fill="#5e5e5e" d=" M 139.02 368.95 C 147.29 368.11 137.76 376.24 139.02 368.95 Z" />
<path fill="#3b3838" d=" M 144.28 382.27 C 147.22 378.54 148.62 373.84 150.91 369.70 C 151.11 370.05 151.51 370.76 151.71 371.12 C 151.18 376.11 143.53 380.89 146.62 385.40 C 146.50 385.55 146.25 385.87 146.12 386.03 C 140.68 385.97 135.26 386.04 129.82 385.96 C 129.98 379.26 140.75 385.47 144.28 382.27 Z" />
<path fill="#535353" d=" M 112.27 372.26 C 117.74 372.35 111.68 377.89 112.27 372.26 Z" />
<path fill="#e5e6e5" d=" M 149.96 382.15 C 150.91 379.50 151.60 372.61 155.35 373.82 C 156.18 377.92 154.41 382.26 149.96 382.15 Z" />
<path fill="#5e5656" d=" M 156.29 373.23 C 160.34 377.24 154.03 385.14 148.02 384.13 C 148.66 383.46 149.31 382.80 149.96 382.15 C 154.41 382.26 156.18 377.92 155.35 373.82 C 155.59 373.68 156.06 373.38 156.29 373.23 Z" />
<path fill="#29a5a0" d=" M 121.99 386.02 C 124.60 385.99 127.21 385.96 129.82 385.96 C 135.26 386.04 140.68 385.97 146.12 386.03 C 140.30 387.01 127.54 388.70 121.99 386.02 Z" />
</svg>
